<?xml version="1.0" encoding="UTF-8" standalone="no"?>
<!-- Created with Inkscape (http://www.inkscape.org/) -->

<svg
   xmlns:dc="http://purl.org/dc/elements/1.1/"
   xmlns:cc="http://creativecommons.org/ns#"
   xmlns:rdf="http://www.w3.org/1999/02/22-rdf-syntax-ns#"
   xmlns:svg="http://www.w3.org/2000/svg"
   xmlns="http://www.w3.org/2000/svg"
   xmlns:sodipodi="http://sodipodi.sourceforge.net/DTD/sodipodi-0.dtd"
   xmlns:inkscape="http://www.inkscape.org/namespaces/inkscape"
   width="90mm"
   height="90mm"
   viewBox="0 0 318.89764 318.89764"
   id="svg4159"
   version="1.1"
   inkscape:version="0.91 r13725"
   sodipodi:docname="diglos_d.svg">
  <defs
     id="defs4161" />
  <sodipodi:namedview
     id="base"
     pagecolor="#ffffff"
     bordercolor="#666666"
     borderopacity="1.0"
     inkscape:pageopacity="0.0"
     inkscape:pageshadow="2"
     inkscape:zoom="0.35"
     inkscape:cx="-322.94742"
     inkscape:cy="152.22021"
     inkscape:document-units="px"
     inkscape:current-layer="layer1"
     showgrid="false"
     fit-margin-top="6"
     fit-margin-left="6"
     fit-margin-right="6"
     fit-margin-bottom="6"
     inkscape:window-width="1366"
     inkscape:window-height="705"
     inkscape:window-x="-8"
     inkscape:window-y="-8"
     inkscape:window-maximized="1" />
  <metadata
     id="metadata4164">
    <rdf:RDF>
      <cc:Work
         rdf:about="">
        <dc:format>image/svg+xml</dc:format>
        <dc:type
           rdf:resource="http://purl.org/dc/dcmitype/StillImage" />
        <dc:title></dc:title>
      </cc:Work>
    </rdf:RDF>
  </metadata>
  <g
     inkscape:label="Layer 1"
     inkscape:groupmode="layer"
     id="layer1"
     transform="translate(-276.51885,-365.68476)">
    <path
       sodipodi:nodetypes="cccsccccccscsc"
       style="opacity:1;fill:#000000;fill-opacity:1;fill-rule:nonzero;stroke:none;stroke-width:0;stroke-linecap:butt;stroke-linejoin:miter;stroke-miterlimit:4;stroke-dasharray:none;stroke-opacity:1"
       d="m 498.7284,387.99211 0,160.46849 c -13.57489,-21.57828 -37.2686,-34.68599 -62.76171,-34.7207 -41.0168,1.1e-4 -74.26746,33.25077 -74.26758,74.26757 1.1e-4,41.0168 33.25077,74.26747 74.26758,74.26758 41.01756,9.7e-4 74.26942,-33.25001 74.26953,-74.26758 -0.0173,-0.41618 -0.0382,-0.83221 -0.0625,-1.24804 l 0,-198.76732 z m -62.76171,137.25365 c 34.66238,-1.1e-4 62.76182,28.09933 62.76171,62.76171 1.2e-4,34.66239 -28.09933,62.76183 -62.76171,62.76172 -34.66163,-9.6e-4 -62.75988,-28.10009 -62.75977,-62.76172 -1.1e-4,-34.66162 28.09815,-62.76075 62.75977,-62.76171 z"
       id="path4821"
       inkscape:connector-curvature="0" />
  </g>
</svg>
