<?xml version="1.0" encoding="UTF-8" standalone="no"?>
<!-- Created with Inkscape (http://www.inkscape.org/) -->

<svg
   xmlns:dc="http://purl.org/dc/elements/1.1/"
   xmlns:cc="http://creativecommons.org/ns#"
   xmlns:rdf="http://www.w3.org/1999/02/22-rdf-syntax-ns#"
   xmlns:svg="http://www.w3.org/2000/svg"
   xmlns="http://www.w3.org/2000/svg"
   xmlns:sodipodi="http://sodipodi.sourceforge.net/DTD/sodipodi-0.dtd"
   xmlns:inkscape="http://www.inkscape.org/namespaces/inkscape"
   width="1000mm"
   height="1000mm"
   viewBox="0 0 3543.3071 3543.3071"
   id="svg4136"
   version="1.1"
   inkscape:version="0.91 r13725"
   sodipodi:docname="markagrios.svg">
  <defs
     id="defs4138" />
  <sodipodi:namedview
     id="base"
     pagecolor="#ffffff"
     bordercolor="#666666"
     borderopacity="1.0"
     inkscape:pageopacity="0.0"
     inkscape:pageshadow="2"
     inkscape:zoom="0.080509325"
     inkscape:cx="1960.3779"
     inkscape:cy="2664.4445"
     inkscape:document-units="px"
     inkscape:current-layer="layer1"
     showgrid="false"
     inkscape:window-width="1366"
     inkscape:window-height="748"
     inkscape:window-x="0"
     inkscape:window-y="0"
     inkscape:window-maximized="1"
     showguides="true"
     inkscape:guide-bbox="true">
    <sodipodi:guide
       position="433.84869,2256.8897"
       orientation="0,1"
       id="guide5169" />
  </sodipodi:namedview>
  <metadata
     id="metadata4141">
    <rdf:RDF>
      <cc:Work
         rdf:about="">
        <dc:format>image/svg+xml</dc:format>
        <dc:type
           rdf:resource="http://purl.org/dc/dcmitype/StillImage" />
        <dc:title></dc:title>
      </cc:Work>
    </rdf:RDF>
  </metadata>
  <g
     inkscape:label="Layer 1"
     inkscape:groupmode="layer"
     id="layer1"
     transform="translate(0,2490.9449)">
    <path
       style="opacity:1;fill:#000000;fill-opacity:0.54491021;stroke:none;stroke-width:5;stroke-linecap:butt;stroke-linejoin:miter;stroke-miterlimit:4;stroke-dasharray:none;stroke-opacity:1"
       d="M 1771.6543 69.552734 A 1698.1697 1698.1697 0 0 0 73.484375 1767.7227 A 1698.1697 1698.1697 0 0 0 1771.6543 3465.8906 A 1698.1697 1698.1697 0 0 0 3469.8242 1767.7227 A 1698.1697 1698.1697 0 0 0 1771.6543 69.552734 z M 1771.6543 148.17188 A 1619.5507 1619.5507 0 0 1 3391.2051 1767.7227 A 1619.5507 1619.5507 0 0 1 1771.6543 3387.2734 A 1619.5507 1619.5507 0 0 1 152.10352 1767.7227 A 1619.5507 1619.5507 0 0 1 1771.6543 148.17188 z M 1771.6543 242.51367 A 1525.2079 1525.2079 0 0 0 246.44531 1767.7227 A 1525.2079 1525.2079 0 0 0 1771.6543 3292.9297 A 1525.2079 1525.2079 0 0 0 3296.8613 1767.7227 A 1525.2079 1525.2079 0 0 0 1771.6543 242.51367 z M 1238.3652 751.51562 L 1247.1309 751.51562 L 1286.5488 751.51562 L 1295.3145 751.51562 C 1301.3901 751.51562 1307.7313 756.18608 1309.5332 761.98828 L 1492.5273 1351.2324 L 1675.5234 761.98828 C 1677.3254 756.18608 1683.6666 751.51563 1689.7422 751.51562 L 1698.5078 751.51562 L 1737.9277 751.51562 L 1746.6914 751.51562 C 1752.767 751.51562 1759.1083 756.18608 1760.9102 761.98828 L 1973.5195 1446.5938 C 1975.3214 1452.3959 1971.8822 1457.0684 1965.8066 1457.0684 L 1917.623 1457.0684 C 1911.5475 1457.0684 1905.2043 1452.396 1903.4023 1446.5938 L 1718.2168 850.29297 L 1533.0293 1446.5938 C 1531.2274 1452.3959 1524.8861 1457.0684 1518.8105 1457.0684 L 1514.4297 1457.0684 L 1470.627 1457.0684 L 1466.2461 1457.0684 C 1460.1706 1457.0684 1453.8274 1452.396 1452.0254 1446.5938 L 1266.8398 850.29297 L 1081.6523 1446.5938 C 1079.8504 1452.3959 1073.5092 1457.0684 1067.4336 1457.0684 L 1019.25 1457.0684 C 1013.1745 1457.0684 1009.7333 1452.396 1011.5352 1446.5938 L 1224.1465 761.98828 C 1225.9485 756.18608 1232.2896 751.51563 1238.3652 751.51562 z M 2247.3984 751.51562 L 2256.1641 751.51562 L 2295.582 751.51562 L 2304.3477 751.51562 C 2310.4233 751.51562 2316.7645 756.18608 2318.5664 761.98828 L 2531.1758 1446.5938 C 2532.9777 1452.396 2529.5385 1457.0684 2523.4629 1457.0684 L 2475.2793 1457.0684 C 2469.2038 1457.0684 2462.8606 1452.396 2461.0586 1446.5938 L 2275.873 850.29297 L 2090.6855 1446.5938 C 2088.8836 1452.396 2082.5424 1457.0684 2076.4668 1457.0684 L 2028.2832 1457.0684 C 2022.2077 1457.0684 2018.7665 1452.396 2020.5684 1446.5938 L 2233.1797 761.98828 C 2234.9817 756.18608 2241.3228 751.51562 2247.3984 751.51562 z "
       transform="translate(0,-2490.9449)"
       id="path5042" />
    <path
       style="opacity:1;fill:#000600;fill-opacity:0.54491021;stroke:none;stroke-width:5;stroke-linecap:butt;stroke-linejoin:miter;stroke-miterlimit:4;stroke-dasharray:none;stroke-opacity:1"
       d="M 1015.6485,-177.98752 A 847.41133,847.41133 0 0 0 548.60315,-37.077254 1603.2107,1603.2107 0 0 0 1771.4501,532.00564 1603.2107,1603.2107 0 0 0 1851.1923,529.18075 847.41133,847.41133 0 0 0 1850.9362,528.02 1603.2107,1603.2107 0 0 0 2995.6,-36.189754 847.41133,847.41133 0 0 0 2527.2488,-177.98752 847.41133,847.41133 0 0 0 1771.8399,287.4506 847.41133,847.41133 0 0 0 1015.6485,-177.98752 Z"
       id="circle5095"
       inkscape:connector-curvature="0" />
    <path
       style="opacity:1;fill:#000600;fill-opacity:0.54491021;stroke:none;stroke-width:5;stroke-linecap:butt;stroke-linejoin:miter;stroke-miterlimit:4;stroke-dasharray:none;stroke-opacity:1"
       d="m 795.35144,-473.16374 a 1094.4972,1278.6397 0 0 0 -41.75631,2.49128 1094.4972,1278.6397 0 0 0 1017.93057,809.61501 1094.4972,1278.6397 0 0 0 1017.2485,-809.99409 1094.4972,1278.6397 0 0 0 -41.0743,-2.1122 1094.4972,1278.6397 0 0 0 -975.6687,702.28855 1094.4972,1278.6397 0 0 0 -976.67976,-702.28855 z"
       id="circle5138"
       inkscape:connector-curvature="0" />
    <path
       inkscape:connector-curvature="0"
       id="path5145"
       d="m 795.35144,-789.6301 a 1094.4972,1506.1098 0 0 0 -41.75631,2.93446 1094.4972,1506.1098 0 0 0 1017.93057,953.64556 1094.4972,1506.1098 0 0 0 1017.2485,-954.09202 1094.4972,1506.1098 0 0 0 -41.0743,-2.488 A 1094.4972,1506.1098 0 0 0 1772.0312,37.595596 1094.4972,1506.1098 0 0 0 795.35144,-789.6301 Z"
       style="opacity:1;fill:#000600;fill-opacity:0.54491021;stroke:none;stroke-width:5;stroke-linecap:butt;stroke-linejoin:miter;stroke-miterlimit:4;stroke-dasharray:none;stroke-opacity:1" />
    <path
       style="opacity:1;fill:#000600;fill-opacity:0.54491021;stroke:none;stroke-width:5;stroke-linecap:butt;stroke-linejoin:miter;stroke-miterlimit:4;stroke-dasharray:none;stroke-opacity:1"
       d="M 1771.3555 323.81055 A 960.53156 960.53156 0 0 0 810.82422 1284.3418 A 960.53156 960.53156 0 0 0 1771.3555 2244.873 A 960.53156 960.53156 0 0 0 2731.8867 1284.3418 A 960.53156 960.53156 0 0 0 1771.3555 323.81055 z M 1238.3652 751.51562 L 1247.1309 751.51562 L 1286.5488 751.51562 L 1295.3145 751.51562 C 1301.3901 751.51562 1307.7313 756.18608 1309.5332 761.98828 L 1492.5273 1351.2324 L 1675.5234 761.98828 C 1677.3254 756.18608 1683.6666 751.51563 1689.7422 751.51562 L 1698.5078 751.51562 L 1737.9277 751.51562 L 1746.6914 751.51562 C 1752.767 751.51562 1759.1083 756.18608 1760.9102 761.98828 L 1973.5195 1446.5938 C 1975.3214 1452.3959 1971.8822 1457.0684 1965.8066 1457.0684 L 1917.623 1457.0684 C 1911.5475 1457.0684 1905.2043 1452.396 1903.4023 1446.5938 L 1718.2168 850.29297 L 1533.0293 1446.5938 C 1531.2274 1452.3959 1524.8861 1457.0684 1518.8105 1457.0684 L 1514.4297 1457.0684 L 1470.627 1457.0684 L 1466.2461 1457.0684 C 1460.1706 1457.0684 1453.8274 1452.396 1452.0254 1446.5938 L 1266.8398 850.29297 L 1081.6523 1446.5938 C 1079.8504 1452.3959 1073.5092 1457.0684 1067.4336 1457.0684 L 1019.25 1457.0684 C 1013.1745 1457.0684 1009.7333 1452.396 1011.5352 1446.5938 L 1224.1465 761.98828 C 1225.9485 756.18608 1232.2896 751.51563 1238.3652 751.51562 z M 2247.3984 751.51562 L 2256.1641 751.51562 L 2295.582 751.51562 L 2304.3477 751.51562 C 2310.4233 751.51562 2316.7645 756.18608 2318.5664 761.98828 L 2531.1758 1446.5938 C 2532.9777 1452.396 2529.5385 1457.0684 2523.4629 1457.0684 L 2475.2793 1457.0684 C 2469.2038 1457.0684 2462.8606 1452.396 2461.0586 1446.5938 L 2275.873 850.29297 L 2090.6855 1446.5938 C 2088.8836 1452.396 2082.5424 1457.0684 2076.4668 1457.0684 L 2028.2832 1457.0684 C 2022.2077 1457.0684 2018.7665 1452.396 2020.5684 1446.5938 L 2233.1797 761.98828 C 2234.9817 756.18608 2241.3228 751.51562 2247.3984 751.51562 z "
       transform="translate(0,-2490.9449)"
       id="circle5110" />
  </g>
</svg>
