<?xml version="1.0" encoding="UTF-8" standalone="no"?>
<!-- Created with Inkscape (http://www.inkscape.org/) -->

<svg
   xmlns:dc="http://purl.org/dc/elements/1.1/"
   xmlns:cc="http://creativecommons.org/ns#"
   xmlns:rdf="http://www.w3.org/1999/02/22-rdf-syntax-ns#"
   xmlns:svg="http://www.w3.org/2000/svg"
   xmlns="http://www.w3.org/2000/svg"
   xmlns:sodipodi="http://sodipodi.sourceforge.net/DTD/sodipodi-0.dtd"
   xmlns:inkscape="http://www.inkscape.org/namespaces/inkscape"
   width="1000mm"
   height="1000mm"
   viewBox="0 0 3543.3071 3543.3071"
   id="svg4136"
   version="1.1"
   inkscape:version="0.91 r13725"
   sodipodi:docname="markagrios.svg">
  <defs
     id="defs4138" />
  <sodipodi:namedview
     id="base"
     pagecolor="#ffffff"
     bordercolor="#666666"
     borderopacity="1.0"
     inkscape:pageopacity="0.0"
     inkscape:pageshadow="2"
     inkscape:zoom="0.11409508"
     inkscape:cx="1629.0178"
     inkscape:cy="1627.9215"
     inkscape:document-units="px"
     inkscape:current-layer="layer1"
     showgrid="false"
     inkscape:window-width="1366"
     inkscape:window-height="748"
     inkscape:window-x="0"
     inkscape:window-y="0"
     inkscape:window-maximized="1"
     showguides="true"
     inkscape:guide-bbox="true" />
  <metadata
     id="metadata4141">
    <rdf:RDF>
      <cc:Work
         rdf:about="">
        <dc:format>image/svg+xml</dc:format>
        <dc:type
           rdf:resource="http://purl.org/dc/dcmitype/StillImage" />
        <dc:title></dc:title>
      </cc:Work>
    </rdf:RDF>
  </metadata>
  <g
     inkscape:label="Layer 1"
     inkscape:groupmode="layer"
     id="layer1"
     transform="translate(0,2490.9449)">
    <path
       style="opacity:1;fill:#000000;fill-opacity:0.54491021;stroke:none;stroke-width:5;stroke-linecap:butt;stroke-linejoin:miter;stroke-miterlimit:4;stroke-dasharray:none;stroke-opacity:1"
       d="M 1771.6543 69.552734 A 1698.1697 1698.1697 0 0 0 73.484375 1767.7227 A 1698.1697 1698.1697 0 0 0 1771.6543 3465.8906 A 1698.1697 1698.1697 0 0 0 3469.8242 1767.7227 A 1698.1697 1698.1697 0 0 0 1771.6543 69.552734 z M 1771.6543 148.17188 A 1619.5507 1619.5507 0 0 1 3391.2051 1767.7227 A 1619.5507 1619.5507 0 0 1 1771.6543 3387.2734 A 1619.5507 1619.5507 0 0 1 152.10352 1767.7227 A 1619.5507 1619.5507 0 0 1 1771.6543 148.17188 z M 1771.6543 242.51367 A 1525.2079 1525.2079 0 0 0 246.44531 1767.7227 A 1525.2079 1525.2079 0 0 0 1771.6543 3292.9297 A 1525.2079 1525.2079 0 0 0 3296.8613 1767.7227 A 1525.2079 1525.2079 0 0 0 1771.6543 242.51367 z M 1291.5039 786.94922 L 1300.2695 786.94922 L 1339.6875 786.94922 L 1348.4531 786.94922 C 1354.5287 786.94922 1360.87 791.61967 1362.6719 797.42188 L 1545.666 1386.666 L 1728.6621 797.42188 C 1730.4641 791.61968 1736.8053 786.94922 1742.8809 786.94922 L 1751.6465 786.94922 L 1791.0664 786.94922 L 1799.8301 786.94922 C 1805.9057 786.94922 1812.2469 791.61967 1814.0488 797.42188 L 1997.0449 1386.6699 L 2180.041 797.42188 C 2181.843 791.61968 2188.1842 786.94922 2194.2598 786.94922 L 2203.0254 786.94922 L 2242.4434 786.94922 L 2251.209 786.94922 C 2257.2846 786.94922 2263.6258 791.61967 2265.4277 797.42188 L 2478.0371 1482.0273 C 2479.839 1487.8295 2476.3998 1492.502 2470.3242 1492.502 L 2422.1406 1492.502 C 2416.0651 1492.502 2409.7219 1487.8295 2407.9199 1482.0273 L 2326.0859 1218.5195 L 2119.3301 1218.6855 L 2037.5469 1482.0273 C 2035.745 1487.8295 2029.4037 1492.502 2023.3281 1492.502 L 2018.9453 1492.502 L 1970.7617 1492.502 C 1964.6862 1492.502 1958.343 1487.8295 1956.541 1482.0273 L 1771.3555 885.72656 L 1586.168 1482.0273 C 1584.3661 1487.8295 1578.0248 1492.502 1571.9492 1492.502 L 1567.5684 1492.502 L 1523.7656 1492.502 L 1519.3848 1492.502 C 1513.3093 1492.502 1506.9661 1487.8295 1505.1641 1482.0273 L 1319.9785 885.72656 L 1134.791 1482.0273 C 1132.9891 1487.8295 1126.6479 1492.502 1120.5723 1492.502 L 1072.3887 1492.502 C 1066.3132 1492.502 1062.8719 1487.8295 1064.6738 1482.0273 L 1277.2852 797.42188 C 1279.0872 791.61968 1285.4283 786.94922 1291.5039 786.94922 z M 2222.7344 885.72656 L 2141.1113 1148.5508 L 2304.3164 1148.4199 L 2222.7344 885.72656 z "
       transform="translate(0,-2490.9449)"
       id="path5042" />
    <path
       style="opacity:1;fill:#000600;fill-opacity:0.54491021;stroke:none;stroke-width:5;stroke-linecap:butt;stroke-linejoin:miter;stroke-miterlimit:4;stroke-dasharray:none;stroke-opacity:1"
       d="M 1015.6485,-177.98752 A 847.41133,847.41133 0 0 0 548.60315,-37.077254 1603.2107,1603.2107 0 0 0 1771.4501,532.00564 1603.2107,1603.2107 0 0 0 1851.1923,529.18075 847.41133,847.41133 0 0 0 1850.9362,528.02 1603.2107,1603.2107 0 0 0 2995.6,-36.189754 847.41133,847.41133 0 0 0 2527.2488,-177.98752 847.41133,847.41133 0 0 0 1771.8399,287.4506 847.41133,847.41133 0 0 0 1015.6485,-177.98752 Z"
       id="circle5095"
       inkscape:connector-curvature="0" />
    <path
       style="opacity:1;fill:#000600;fill-opacity:0.54491021;stroke:none;stroke-width:5;stroke-linecap:butt;stroke-linejoin:miter;stroke-miterlimit:4;stroke-dasharray:none;stroke-opacity:1"
       d="m 795.35144,-473.16374 a 1094.4972,1278.6397 0 0 0 -41.75631,2.49128 1094.4972,1278.6397 0 0 0 1017.93057,809.61501 1094.4972,1278.6397 0 0 0 1017.2485,-809.99409 1094.4972,1278.6397 0 0 0 -41.0743,-2.1122 1094.4972,1278.6397 0 0 0 -975.6687,702.28855 1094.4972,1278.6397 0 0 0 -976.67976,-702.28855 z"
       id="circle5138"
       inkscape:connector-curvature="0" />
    <path
       inkscape:connector-curvature="0"
       id="path5145"
       d="m 795.35144,-789.6301 a 1094.4972,1506.1098 0 0 0 -41.75631,2.93446 1094.4972,1506.1098 0 0 0 1017.93057,953.64556 1094.4972,1506.1098 0 0 0 1017.2485,-954.09202 1094.4972,1506.1098 0 0 0 -41.0743,-2.488 A 1094.4972,1506.1098 0 0 0 1772.0312,37.595596 1094.4972,1506.1098 0 0 0 795.35144,-789.6301 Z"
       style="opacity:1;fill:#000600;fill-opacity:0.54491021;stroke:none;stroke-width:5;stroke-linecap:butt;stroke-linejoin:miter;stroke-miterlimit:4;stroke-dasharray:none;stroke-opacity:1" />
    <path
       style="opacity:1;fill:#000600;fill-opacity:0.54491021;stroke:none;stroke-width:5;stroke-linecap:butt;stroke-linejoin:miter;stroke-miterlimit:4;stroke-dasharray:none;stroke-opacity:1"
       d="M 1771.3555 323.81055 A 960.53156 960.53156 0 0 0 810.82422 1284.3418 A 960.53156 960.53156 0 0 0 1771.3555 2244.873 A 960.53156 960.53156 0 0 0 2731.8867 1284.3418 A 960.53156 960.53156 0 0 0 1771.3555 323.81055 z M 1291.5039 786.94922 L 1300.2695 786.94922 L 1339.6875 786.94922 L 1348.4531 786.94922 C 1349.5923 786.94922 1350.741 787.1129 1351.8672 787.41797 C 1356.7473 788.73992 1361.2078 792.70758 1362.6719 797.42188 L 1545.666 1386.666 L 1728.6621 797.42188 C 1728.7747 797.05924 1728.9058 796.70059 1729.0527 796.34766 C 1729.1996 795.99472 1729.3622 795.64619 1729.541 795.30469 C 1731.5087 791.5489 1735.338 788.53639 1739.4668 787.41797 C 1740.593 787.1129 1741.7417 786.94922 1742.8809 786.94922 L 1751.6465 786.94922 L 1791.0664 786.94922 L 1799.8301 786.94922 C 1800.9693 786.94922 1802.118 787.1129 1803.2441 787.41797 C 1807.3729 788.53639 1811.2023 791.5489 1813.1699 795.30469 C 1813.1702 795.30521 1813.1696 795.30612 1813.1699 795.30664 C 1813.5273 795.98915 1813.8238 796.69716 1814.0488 797.42188 L 1997.0449 1386.6699 L 2180.041 797.42188 C 2180.1536 797.05924 2180.2847 796.70059 2180.4316 796.34766 C 2180.5786 795.99472 2180.7411 795.64619 2180.9199 795.30469 C 2181.8142 793.59778 2183.0929 792.04364 2184.6094 790.75195 C 2184.6097 790.75164 2184.611 790.75226 2184.6113 790.75195 C 2184.9143 790.4939 2185.226 790.24607 2185.5469 790.00977 C 2185.5473 790.00946 2185.5484 790.01007 2185.5488 790.00977 C 2187.1548 788.82718 2188.9692 787.92627 2190.8457 787.41797 C 2191.9719 787.1129 2193.1206 786.94922 2194.2598 786.94922 L 2203.0254 786.94922 L 2242.4434 786.94922 L 2251.209 786.94922 C 2252.3482 786.94922 2253.4969 787.1129 2254.623 787.41797 C 2258.7518 788.53639 2262.5812 791.5489 2264.5488 795.30469 C 2264.5491 795.30521 2264.5486 795.30612 2264.5488 795.30664 C 2264.9062 795.98915 2265.2027 796.69716 2265.4277 797.42188 L 2478.0371 1482.0273 C 2478.1495 1482.3894 2478.2422 1482.7472 2478.3145 1483.0996 C 2478.3146 1483.1003 2478.3143 1483.1009 2478.3145 1483.1016 C 2478.5314 1484.1604 2478.5702 1485.1708 2478.4473 1486.1113 C 2478.3653 1486.7383 2478.2106 1487.3335 2477.9902 1487.8906 C 2477.8801 1488.1692 2477.7542 1488.4388 2477.6113 1488.6973 C 2477.4685 1488.9557 2477.309 1489.2028 2477.1348 1489.4395 C 2477.1344 1489.4399 2477.1351 1489.441 2477.1348 1489.4414 C 2476.7865 1489.9143 2476.3763 1490.3414 2475.9102 1490.7168 C 2474.9772 1491.4683 2473.8186 1492.0109 2472.4746 1492.2891 C 2471.8026 1492.4282 2471.0837 1492.502 2470.3242 1492.502 L 2422.1406 1492.502 C 2421.3812 1492.502 2420.6178 1492.4282 2419.8594 1492.2891 C 2418.3426 1492.0109 2416.8473 1491.4683 2415.4473 1490.7168 C 2415.0973 1490.5289 2414.7528 1490.3284 2414.416 1490.1152 C 2413.7424 1489.6889 2413.0971 1489.2142 2412.4902 1488.6973 C 2411.8833 1488.1803 2411.3143 1487.6211 2410.793 1487.0273 C 2410.2716 1486.4336 2409.7978 1485.8052 2409.3809 1485.1484 C 2408.9639 1484.4917 2408.6044 1483.8075 2408.3105 1483.1016 C 2408.3103 1483.101 2408.3108 1483.1002 2408.3105 1483.0996 C 2408.1639 1482.7472 2408.0324 1482.3894 2407.9199 1482.0273 L 2326.0859 1218.5195 L 2119.3301 1218.6855 L 2037.5469 1482.0273 C 2037.4344 1482.3894 2037.3029 1482.7472 2037.1562 1483.0996 C 2036.2748 1485.2173 2034.7988 1487.1464 2032.9785 1488.6973 C 2032.3717 1489.2142 2031.7263 1489.6889 2031.0527 1490.1152 C 2030.716 1490.3284 2030.3714 1490.5289 2030.0215 1490.7168 C 2028.6217 1491.4683 2027.1261 1492.0109 2025.6094 1492.2891 C 2024.851 1492.4282 2024.0876 1492.502 2023.3281 1492.502 L 2018.9453 1492.502 L 1970.7617 1492.502 C 1970.0023 1492.502 1969.2389 1492.4282 1968.4805 1492.2891 C 1966.9636 1492.0109 1965.4684 1491.4683 1964.0684 1490.7168 C 1963.7184 1490.5289 1963.3739 1490.3284 1963.0371 1490.1152 C 1962.3634 1489.6889 1961.7182 1489.2142 1961.1113 1488.6973 C 1960.5044 1488.1803 1959.9354 1487.6211 1959.4141 1487.0273 C 1958.8927 1486.4336 1958.4189 1485.8052 1958.002 1485.1484 C 1957.585 1484.4917 1957.2255 1483.8075 1956.9316 1483.1016 C 1956.9314 1483.101 1956.9319 1483.1002 1956.9316 1483.0996 C 1956.785 1482.7472 1956.6535 1482.3894 1956.541 1482.0273 L 1771.3555 885.72656 L 1586.168 1482.0273 C 1586.0556 1482.3892 1585.9258 1482.7474 1585.7793 1483.0996 C 1585.779 1483.1004 1585.7777 1483.1008 1585.7773 1483.1016 C 1584.8959 1485.2192 1583.4199 1487.1464 1581.5996 1488.6973 C 1580.9928 1489.2142 1580.3474 1489.6889 1579.6738 1490.1152 C 1579.3371 1490.3284 1578.9925 1490.5289 1578.6426 1490.7168 C 1577.2428 1491.4683 1575.7472 1492.0109 1574.2305 1492.2891 C 1573.4721 1492.4282 1572.7087 1492.502 1571.9492 1492.502 L 1567.5684 1492.502 L 1523.7656 1492.502 L 1519.3848 1492.502 C 1518.6253 1492.502 1517.8619 1492.4282 1517.1035 1492.2891 C 1515.5867 1492.0109 1514.0914 1491.4683 1512.6914 1490.7168 C 1512.3414 1490.5289 1511.997 1490.3284 1511.6602 1490.1152 C 1510.9865 1489.6889 1510.3413 1489.2142 1509.7344 1488.6973 C 1509.1275 1488.1803 1508.5584 1487.6211 1508.0371 1487.0273 C 1507.5158 1486.4336 1507.042 1485.8052 1506.625 1485.1484 C 1506.208 1484.4917 1505.8485 1483.8075 1505.5547 1483.1016 C 1505.5545 1483.101 1505.5549 1483.1002 1505.5547 1483.0996 C 1505.408 1482.7472 1505.2765 1482.3894 1505.1641 1482.0273 L 1319.9785 885.72656 L 1134.791 1482.0273 C 1134.0027 1484.5658 1132.3463 1486.8879 1130.2227 1488.6973 C 1129.6159 1489.2142 1128.9704 1489.6889 1128.2969 1490.1152 C 1127.9601 1490.3284 1127.6156 1490.5289 1127.2656 1490.7168 C 1125.8658 1491.4683 1124.3702 1492.0109 1122.8535 1492.2891 C 1122.0951 1492.4282 1121.3317 1492.502 1120.5723 1492.502 L 1072.3887 1492.502 C 1071.6292 1492.502 1070.9103 1492.4282 1070.2383 1492.2891 C 1068.8942 1492.0109 1067.736 1491.4683 1066.8027 1490.7168 C 1066.3365 1490.3414 1065.9266 1489.9143 1065.5781 1489.4414 C 1065.5778 1489.441 1065.5784 1489.4399 1065.5781 1489.4395 C 1064.8809 1488.4928 1064.4298 1487.3653 1064.2656 1486.1113 C 1064.1835 1485.4843 1064.1718 1484.8256 1064.2383 1484.1426 C 1064.2715 1483.8017 1064.3244 1483.4538 1064.3965 1483.1016 C 1064.3966 1483.101 1064.3964 1483.1002 1064.3965 1483.0996 C 1064.4688 1482.7467 1064.5612 1482.39 1064.6738 1482.0273 L 1277.2852 797.42188 C 1277.5102 796.69716 1277.8067 795.98915 1278.1641 795.30664 C 1278.1643 795.30614 1278.1638 795.30518 1278.1641 795.30469 C 1279.0581 793.59761 1280.3371 792.04383 1281.8535 790.75195 C 1282.4603 790.23513 1283.1058 789.76015 1283.7793 789.33398 C 1285.1264 788.48165 1286.5883 787.82473 1288.0898 787.41797 C 1289.216 787.1129 1290.3647 786.94922 1291.5039 786.94922 z M 2222.7344 885.72656 L 2141.1113 1148.5508 L 2304.3164 1148.4199 L 2222.7344 885.72656 z "
       transform="translate(0,-2490.9449)"
       id="circle5110" />
  </g>
</svg>
