<?xml version="1.0" encoding="UTF-8" standalone="no"?>
<!-- Created with Inkscape (http://www.inkscape.org/) -->

<svg
   xmlns:dc="http://purl.org/dc/elements/1.1/"
   xmlns:cc="http://creativecommons.org/ns#"
   xmlns:rdf="http://www.w3.org/1999/02/22-rdf-syntax-ns#"
   xmlns:svg="http://www.w3.org/2000/svg"
   xmlns="http://www.w3.org/2000/svg"
   xmlns:sodipodi="http://sodipodi.sourceforge.net/DTD/sodipodi-0.dtd"
   xmlns:inkscape="http://www.inkscape.org/namespaces/inkscape"
   width="898.46478"
   height="173.92252"
   viewBox="0 0 237.71881 46.016998"
   version="1.1"
   id="svg8"
   inkscape:version="0.92.3 (2405546, 2018-03-11)"
   sodipodi:docname="sig_black.svg"
   inkscape:export-filename="C:\Users\magri\Documents\workspace\markagrios.github.io\new\sig_k.png"
   inkscape:export-xdpi="90"
   inkscape:export-ydpi="90">
  <defs
     id="defs2" />
  <sodipodi:namedview
     id="base"
     pagecolor="#ffffff"
     bordercolor="#666666"
     borderopacity="1.0"
     inkscape:pageopacity="0.0"
     inkscape:pageshadow="2"
     inkscape:zoom="1.4198581"
     inkscape:cx="445.81539"
     inkscape:cy="40.037368"
     inkscape:document-units="mm"
     inkscape:current-layer="layer1"
     showgrid="false"
     showguides="true"
     inkscape:guide-bbox="true"
     inkscape:window-width="2256"
     inkscape:window-height="1410"
     inkscape:window-x="-11"
     inkscape:window-y="-11"
     inkscape:window-maximized="1"
     inkscape:snap-page="false"
     fit-margin-top="0"
     fit-margin-left="0"
     fit-margin-right="0"
     fit-margin-bottom="0"
     units="px" />
  <metadata
     id="metadata5">
    <rdf:RDF>
      <cc:Work
         rdf:about="">
        <dc:format>image/svg+xml</dc:format>
        <dc:type
           rdf:resource="http://purl.org/dc/dcmitype/StillImage" />
        <dc:title></dc:title>
      </cc:Work>
    </rdf:RDF>
  </metadata>
  <g
     inkscape:label="Layer 1"
     inkscape:groupmode="layer"
     id="layer1"
     transform="translate(33.63019,-97.512541)">
    <g
       id="g878"
       transform="translate(1.0583333,3.7041668)" />
    <g
       id="g886"
       style="fill:#ffff00;fill-opacity:1">
      <path
         id="path838"
         d="m 139.87103,97.512598 c -0.63383,-0.0042 -1.29961,0.225208 -1.96267,0.684712 -1.02321,0.709092 -1.53982,1.291561 -7.23522,8.16285 -2.30529,2.78123 -4.27641,4.80456 -7.30033,7.49308 -7.08452,6.29873 -8.72672,7.67182 -9.64489,8.06359 -0.48895,0.20863 -4.20401,1.20814 -8.25531,2.22157 -10.856933,2.71586 -19.544435,6.1153 -22.540208,8.82013 -1.271618,1.14814 -2.735738,2.77593 -2.986898,4.58164 -0.08228,0.59155 0.195119,1.21767 0.531751,1.71101 0.834656,1.22319 1.87368,2.3983 3.469555,2.7745 3.474597,0.81909 7.777005,-0.41128 15.119476,-4.32428 4.963794,-2.64533 6.333124,-3.52007 10.089304,-6.44509 1.46685,-1.14227 3.61796,-2.74028 4.78007,-3.55068 2.02979,-1.41549 2.28427,-1.51641 6.4704,-2.56832 2.39667,-0.60225 4.39288,-1.05948 4.43591,-1.01648 0.15286,0.15285 -4.07774,3.98224 -4.82813,4.37028 -0.41973,0.21705 -1.30918,0.55678 -1.97662,0.75499 -3.03769,0.9021 -4.14408,4.54355 -2.11357,6.95668 1.4795,1.75828 3.55543,2.02096 5.89628,0.74621 1.51251,-0.82367 2.9782,-2.42676 4.80281,-5.25343 0.56391,-0.87362 1.78901,-2.61431 2.72283,-3.86849 0.93383,-1.2542 2.2041,-3.16819 2.82257,-4.25349 l 1.12448,-1.97353 7.68015,-1.92804 c 11.81874,-2.96697 19.49687,-4.97226 23.28126,-6.08077 l 9.29091,-2.15439 c 3.80786,-0.74589 6.06201,-1.30731 6.47454,-1.6123 1.41311,-1.04475 1.19356,-3.27365 -0.39739,-4.03232 -0.76439,-0.36451 -0.989,-0.35354 -2.9776,0.14521 -1.18287,0.29667 -4.02145,0.93423 -6.30814,1.41697 -2.28669,0.48274 -5.47209,1.27484 -7.07864,1.7601 -4.36786,1.31933 -26.45961,7.04065 -26.62214,6.89467 -0.0436,-0.0392 0.45895,-1.14009 1.11724,-2.44688 0.65829,-1.3068 1.93328,-4.03341 2.83342,-6.05906 2.41407,-5.43259 2.62029,-8.290512 0.68884,-9.556043 -0.4374,-0.286602 -0.91107,-0.431329 -1.40404,-0.434599 z m -7.53339,15.025992 c 0.0588,0.007 -0.0772,0.24748 -0.32918,0.67955 -0.32593,0.5588 -1.14535,1.88693 -1.82056,2.95176 -1.21271,1.91249 -1.24663,1.94144 -2.8112,2.36678 v -5.3e-4 c -0.87112,0.23683 -1.78383,0.48779 -2.0283,0.55759 -0.24448,0.0703 -0.44494,0.0682 -0.44494,-0.004 0,-0.0723 1.00023,-0.95458 2.22261,-1.9606 1.22237,-1.00603 2.9545,-2.52615 3.84886,-3.37809 0.88911,-0.84695 1.28704,-1.22186 1.36271,-1.21233 z m -28.93674,17.14056 c 0.0487,-0.001 0.0806,0.005 0.0941,0.0186 0.38586,0.38586 -11.479823,6.55584 -13.69165,7.11946 -0.794996,0.20258 -1.995167,0.44012 -2.667021,0.52762 l -1.22163,0.15916 0.762228,-0.65577 c 1.223775,-1.05263 3.534929,-2.25044 7.746813,-4.01526 3.707412,-1.55345 8.24658,-3.13936 8.97721,-3.15381 z"
         style="fill:#ffff00;stroke-width:1;fill-opacity:1"
         inkscape:connector-curvature="0"
         sodipodi:nodetypes="ccsscscaaccscsccccccccccccccsscccsccccccccsccccccccccscc" />
      <path
         transform="scale(0.26458333)"
         sodipodi:nodetypes="cccccccccccccccscccccccccccscccscccccccccccccccccccccsccccccccccsccccccccccccccccccscscscs"
         inkscape:connector-curvature="0"
         id="path848"
         d="m 659.49609,437.7168 c -1.82342,0.0333 -3.6245,0.47983 -5.0664,1.33789 -1.88104,1.11934 -2.6287,3.74635 -2.83203,5.92578 -0.20247,2.16805 0.11622,4.79487 1.67773,6.3125 1.44091,1.40028 3.92043,1.87828 5.86719,1.38086 3.65839,-0.93479 7.41231,-3.93016 8.42969,-7.56641 0.51254,-1.83197 -0.15448,-4.29025 -1.65235,-5.46289 -1.69866,-1.32984 -4.07943,-1.9706 -6.42383,-1.92773 z m -58.23828,18.24023 c -1.49404,0.0476 -3.18415,0.39772 -5.11719,1.04492 -4.14784,1.38875 -9.5039,5.33735 -9.5039,7.00586 0,0 -39.99,44.92201 -35.03125,30.30078 0.17083,-0.4106 2.18627,-4.49102 4.47851,-9.0664 5.50428,-10.98667 5.94604,-14.49492 2.55274,-20.28516 -4.67993,-7.98565 -11.61074,-9.55176 -21.14063,-4.77734 -12.43442,6.22953 -19.6582,16.23868 -19.6582,27.23828 0,6.50317 1.73318,10.88299 5.54102,14.00586 l 2.43164,1.99414 -4.22657,1.09375 c -2.32444,0.60155 -9.62656,2.43269 -16.22656,4.06836 -20.47196,5.07345 -25.90732,8.79684 -25.91601,17.74804 -0.008,7.33369 7.43803,14.15677 17.24023,15.80079 11.65417,1.95465 21.9557,-4.25055 37.1582,-22.38086 7.26822,-8.66793 7.49845,-8.84113 15.60743,-11.78516 19.80052,-7.1887 30.48527,-21.24567 37.5664,-25.61719 l 3.33594,-2.06054 -2.24219,3.15039 c -1.23367,1.73257 -5.22012,6.36039 -8.85742,10.2832 -7.17071,7.73359 -8.00964,10.30408 -5.16211,15.81055 3.89802,7.538 13.71009,9.74591 23.35938,5.2539 5.11532,-2.38133 5.14015,-2.38348 7.50976,-0.51953 3.27205,2.57378 12.46932,5.10541 16.5918,4.56641 4.71103,-0.61595 19.11291,-3.39823 22.60742,-4.36719 2.1868,-0.60635 3.80499,-0.31595 6.7207,1.20508 5.87071,3.06221 17.2543,2.52599 24.69532,-1.16211 5.35948,-2.65644 5.59796,-2.68918 7.14257,-0.98242 0.87886,0.97111 3.76484,2.40856 6.41407,3.19531 10.85019,3.22216 24.23798,0.53939 31.24609,-6.26172 2.09817,-2.03618 5.24714,-4.11048 6.99805,-4.60937 14.07613,-4.01065 39.31823,-16.99135 42.50781,-21.85938 3.30183,-5.03917 0.77798,-10.9599 -4.67188,-10.95703 -2.22213,9.8e-4 -3.88109,0.96763 -6.57812,3.83398 -3.43914,3.65507 -19.61903,12.39646 -25.76953,13.92188 -2.47484,0.61379 -2.4991,0.56355 -3.06641,-6.20313 -1.97937,-23.60999 -22.76389,-25.76701 -37.31836,-3.87304 -1.5874,2.38855 -1.59727,2.37455 -1.58594,-2.70313 0.0113,-5.58572 -1.39738,-7.91278 -6.34765,-10.47265 -6.15273,-3.18172 -18.64602,0.81844 -28.58985,9.15234 -7.93545,6.65072 -11.24188,11.54361 -13.28906,19.67383 -1.06197,4.21742 -1.29659,4.44662 -5.08984,4.97265 -4.24116,0.58817 -9.40949,-0.44318 -9.92188,-1.98046 -0.17083,-0.51239 5.23748,-6.75238 12.01954,-13.86719 6.78209,-7.11481 12.83489,-13.87992 13.44921,-15.03321 2.78718,-5.23245 0.2207,-10.86328 -4.95117,-10.86328 -2.43927,0 -5.29901,2.36346 -18.33203,15.15625 -12.16433,11.94014 -16.27838,15.40457 -19.38867,16.32032 -2.17145,0.63934 -4.99576,2.20864 -6.27539,3.48828 -2.49921,2.49921 -9.67516,5.76188 -11.4043,5.18554 -1.02225,-0.34091 -1.40156,-8.77806 8.31836,-19.68359 8.5889,-9.63647 10.76721,-17.25622 6.23242,-21.79102 -1.62667,-1.6267 -3.57247,-2.38785 -6.0625,-2.30859 z m -59.10547,20.08789 c 0.30388,-0.0113 0.60107,-1.8e-4 0.88672,0.041 1.87737,0.26986 1.45597,0.97646 -3.76367,6.30468 -6.11187,6.23906 -7.99805,7.23329 -7.99805,4.22071 0,-4.45047 6.31878,-10.38306 10.875,-10.56641 z m 132.1211,4.18555 c 0.19578,0.0113 0.36697,0.0409 0.50976,0.0957 2.01642,0.77378 2.8621,6.00809 1.53711,9.51367 -1.30809,3.46092 -5.29448,7.82563 -8.83593,9.67578 -3.16612,1.65389 -4.39788,1.67465 -7.48829,0.11915 -3.67782,-1.8511 -3.7363,-6.93272 -0.13086,-11.28125 2.9525,-3.56111 11.47405,-8.26992 14.40821,-8.12305 z m 39.21679,0.63867 c 0.87941,0.0908 1.42695,0.91797 1.76172,2.41797 0.33185,1.4863 0.81123,3.46614 1.06446,4.39844 0.6864,2.52809 -1.48324,8.22444 -3.33789,8.76367 -0.89137,0.25927 -3.78188,0.73176 -6.42188,1.04883 -2.64,0.31748 -6.24509,0.80016 -8.01172,1.07422 l -3.21289,0.5 7.60352,-8.94141 c 5.17712,-6.08795 8.29653,-9.02542 10.15625,-9.25586 0.13948,-0.0173 0.2728,-0.0188 0.39843,-0.006 z m -195.16796,37.28125 c 1.41596,0 -6.48908,7.71406 -9.54883,9.31836 -4.91955,2.57941 -7.71148,2.99173 -11.48242,1.69531 -5.16972,-1.77721 -5.18489,-2.11077 -0.20313,-4.24609 4.56223,-1.95564 19.66016,-6.76758 21.23438,-6.76758 z"
         style="fill:#ffff00;stroke-width:3.77952766;fill-opacity:1" />
      <path
         sodipodi:nodetypes="ccccsccccccccccccccsscccccccccssccscccccscccsccccacsa"
         inkscape:connector-curvature="0"
         id="path830"
         d="m 73.405855,108.62386 c -1.71145,0.002 -2.244061,0.63707 -4.653463,5.54953 -1.189,2.4242 -2.658816,5.10988 -3.266466,5.96863 -0.60764,0.85876 -1.757807,2.62336 -2.555918,3.92121 -2.8282,4.59917 -5.030538,6.85318 -7.356139,7.52925 -2.083019,0.60555 -2.59526,0.54016 -2.773992,-0.35347 -0.08264,-0.41321 0.0049,-1.12758 0.194821,-1.5875 0.478131,-1.15762 0.152199,-3.18563 -0.61133,-3.8039 -1.210821,-0.98045 -3.433258,-0.41792 -6.401679,1.62109 -0.374938,0.25754 -1.140902,0.63033 -1.70222,0.82838 l -1.020609,0.36018 0.258897,-0.68006 c 0.843542,-2.21867 -1.604198,-4.30083 -3.36672,-2.86391 -0.59123,0.48159 -0.60688,0.48165 -1.12241,10e-4 -0.636241,-0.59314 -2.723401,-1.01941 -3.636473,-0.74259 -1.347692,0.40858 -4.257855,1.8584 -5.492686,2.73627 -3.852208,2.73861 -5.208087,5.16304 -4.015776,7.18147 0.612509,1.03689 1.528984,1.3275 3.816822,1.20923 1.907752,-0.0986 2.744073,-0.39201 6.23166,-2.18333 0.104802,-0.0538 0.190169,0.0889 0.190169,0.31678 0,0.75719 1.260044,1.65984 2.316655,1.65984 0.976569,0 3.758546,-0.98991 6.061646,-2.15697 l 1.235583,-0.62632 0.169498,0.8201 c 0.278378,1.34909 1.329841,2.7215 2.488737,3.24787 h 5.29e-4 c 0.584509,0.26527 1.507424,0.48534 2.051037,0.48834 1.049329,0.006 4.126645,-0.82325 5.304586,-1.42937 0.6175,-0.31776 0.774171,-0.31447 1.262972,0.0279 0.651198,0.45612 1.581666,0.49933 2.659785,0.1235 0.692981,-0.24158 0.844196,-0.19036 1.565796,0.53124 0.7317,0.7317 0.910291,0.78991 2.128552,0.69401 1.52282,-0.11987 6.915896,-1.58231 7.687387,-2.08463 0.283638,-0.18468 1.187209,-0.48611 2.007629,-0.66972 1.897229,-0.42458 2.937804,-1.26072 2.937804,-2.36058 0,-0.97448 -0.590026,-1.88587 -1.426785,-2.204 -0.600511,-0.22832 -2.978062,0.17843 -4.562511,0.78083 l -0.665594,0.25321 0.660424,-0.78496 c 0.8725,-1.03688 0.887161,-2.31988 0.03669,-3.17035 -0.505772,-0.50577 -0.878255,-0.62374 -1.975075,-0.62374 -0.836671,0 -1.576477,0.1576 -1.940967,0.4129 -0.558938,0.39149 -0.55285,0.35566 0.121441,-0.69867 0.390811,-0.61108 1.344586,-1.90839 2.119767,-2.88302 0.77519,-0.97463 1.840744,-2.38361 2.367815,-3.13108 0.527068,-0.74747 1.864243,-2.43054 2.971392,-3.73982 1.107141,-1.30928 2.190269,-2.72318 2.407089,-3.14245 1.088221,-2.1044 -0.3093,-4.34537 -2.708362,-4.34237 z M 34.29857,130.74663 c -0.467646,0.61825 -1.509144,0.68816 -2.243851,0.61112 -1.807255,-0.87039 0.904461,-2.64798 2.218881,-3.1797 1.592698,-0.6443 0.541504,1.8857 0.02497,2.56858 z"
         style="fill:#ffff00;stroke-width:1;fill-opacity:1" />
      <path
         sodipodi:nodetypes="ccssccccsscccccccccccccscccsccscasscscscccc"
         inkscape:connector-curvature="0"
         id="path826"
         d="m 3.1589961,137.05906 c -1.8054321,-0.90858 -2.48014507,-2.45032 -1.7869811,-4.0833 0.7024801,-1.65491 3.8843561,-6.50877 5.2665651,-8.03398 0.822676,-0.90779 1.955889,-2.32808 2.5182475,-3.15619 l 1.0224754,-1.50566 -2.7129309,1.5875 c -1.492111,0.87312 -3.570179,2.10042 -4.617929,2.72733 -2.12324507,1.27043 -9.408463,6.33985 -11.083893,7.71274 -3.0165951,2.47187 -7.2041071,1.57977 -7.2041071,-1.53475 0,-1.25055 0.400334,-1.93388 2.994546,-5.11144 0.912426,-1.1176 1.774157,-2.18119 1.914956,-2.36353 0.7206817,-0.93334 -7.966316,4.95431 -13.545503,9.18052 -1.46685,1.11114 -3.034804,2.17499 -3.484342,2.36413 -1.288398,0.54207 -3.156653,0.43838 -4.161596,-0.23097 -1.62338,-1.08127 -2.401819,-3.67585 -1.574863,-5.24909 0.632916,-1.2041 1.491348,-1.76272 3.126166,-2.03436 1.882503,-0.31279 6.013433,-2.14763 9.197268,-4.08515 1.436802,-0.87437 3.812517,-2.29869 5.279368,-3.16515 1.46685,-0.86647 3.798778,-2.29425 5.182062,-3.17286 4.3320431,-2.75154 7.0921271,-3.48119 8.6205691,-2.27891 1.44657094,1.13787 1.44901994,3.04383 0.0076,5.8917 l -0.610583,1.20633 1.64663097,-1.00785 c 0.90564689,-0.55432 2.34530093,-1.36054 3.19922903,-1.7916 0.853928,-0.43106 2.796962,-1.52239 4.317853,-2.42518 3.2018612,-1.90059 6.0848079,-3.12081 7.8739939,-3.33272 1.098764,-0.13013 1.386594,-0.0587 2.291322,0.56823 1.075545,0.74535 1.761355,1.76517 1.761355,2.61917 0,0.88418 -1.517599,3.90946 -2.494011,4.97172 -0.522529,0.56846 -1.518163,1.83349 -2.21252,2.81117 -0.694358,0.97767 -2.205444,2.85387 -3.35797,4.16932 -1.1525264,1.31545 -2.0955009,2.49491 -2.0955009,2.62102 0,0 13.6151869,-8.0229 20.5906229,-11.72937 6.655742,-3.5366 16.551662,-7.87537 20.270292,-10.01864 3.05524,-1.76092 7.68899,-3.76314 8.70907,-3.76314 0.39067,0 1.02842,0.27362 1.41721,0.60804 0.55546,0.47779 0.70689,0.82712 0.70689,1.63072 0,1.42015 -0.49339,1.85747 -3.49841,3.1008 -1.42232,0.58849 -3.84335,1.78196 -5.38005,2.65215 -4.44371,2.51635 -5.0193,2.81399 -11.04773,5.7128 -3.14395,1.51178 -9.145272,4.40302 -13.336272,6.42498 -14.478837,6.98533 -21.1347639,12.80899 -23.7090699,11.51347 z"
         style="fill:#ffff00;stroke-width:1;fill-opacity:1" />
    </g>
    <rect
       style="opacity:1;fill:#f33d96;fill-opacity:1;fill-rule:nonzero;stroke:none;stroke-width:3;stroke-linecap:round;stroke-linejoin:miter;stroke-miterlimit:4;stroke-dasharray:none;stroke-opacity:1"
       id="rect888"
       width="49.008713"
       height="19.379871"
       x="-71.271858"
       y="41.598877" />
    <rect
       y="46.890545"
       x="-71.271858"
       height="19.379871"
       width="49.008713"
       id="rect890"
       style="opacity:1;fill:#fbc27a;fill-opacity:1;fill-rule:nonzero;stroke:none;stroke-width:3;stroke-linecap:round;stroke-linejoin:miter;stroke-miterlimit:4;stroke-dasharray:none;stroke-opacity:1" />
    <rect
       style="opacity:1;fill:#99fcaf;fill-opacity:1;fill-rule:nonzero;stroke:none;stroke-width:3;stroke-linecap:round;stroke-linejoin:miter;stroke-miterlimit:4;stroke-dasharray:none;stroke-opacity:1"
       id="rect892"
       width="49.008713"
       height="19.379871"
       x="-71.271858"
       y="52.182213" />
    <rect
       y="57.473881"
       x="-71.271858"
       height="19.379871"
       width="49.008713"
       id="rect894"
       style="opacity:1;fill:#8d7cff;fill-opacity:1;fill-rule:nonzero;stroke:none;stroke-width:3;stroke-linecap:round;stroke-linejoin:miter;stroke-miterlimit:4;stroke-dasharray:none;stroke-opacity:1" />
  </g>
</svg>
